<svg width="142" height="52" viewBox="0 0 142 52" fill="none" xmlns="http://www.w3.org/2000/svg">
<path d="M77.5607 19.1507C79.5233 19.5567 81.0234 20.3688 82.0611 21.5869C83.1213 22.7825 83.6515 24.2375 83.6515 25.9519C83.6515 27.3505 83.268 28.6476 82.501 29.8432C81.7566 31.0388 80.6061 32.0088 79.0496 32.7532C77.5156 33.4751 75.6095 33.836 73.3311 33.836C71.6618 33.836 70.0038 33.633 68.357 33.227C66.7328 32.8209 65.3229 32.2457 64.1273 31.5013L66.5636 26.4595C67.4885 27.0911 68.5262 27.5761 69.6767 27.9145C70.8497 28.2529 72.0002 28.4221 73.1281 28.4221C74.2785 28.4221 75.1921 28.2078 75.8689 27.7792C76.5456 27.3505 76.884 26.7415 76.884 25.9519C76.884 24.418 75.6771 23.651 73.2634 23.651H70.4549V19.4213L74.6846 14.8533H65.3455V9.67621H82.4671V13.872L77.5607 19.1507ZM101.645 33.3623L96.7388 26.0196L91.9001 33.3623H84.2529L92.8814 21.3839L84.6251 9.67621H92.1708L96.908 16.5113L101.578 9.67621H108.819L100.562 21.1132L109.36 33.3623H101.645ZM132.296 33.3623L132.228 20.8087L126.137 31.0275H123.16L117.103 21.147V33.3623H110.911V9.67621H116.426L124.75 23.3465L132.871 9.67621H138.386L138.454 33.3623H132.296Z" fill="#1D3557"/>
<path d="M71.0216 43.1712H72.339V46.1593C71.9534 46.4663 71.5036 46.7019 70.9895 46.8661C70.4754 47.0304 69.9471 47.1125 69.4044 47.1125C68.6404 47.1125 67.9514 46.9483 67.3374 46.6198C66.7233 46.2842 66.2414 45.8237 65.8915 45.2382C65.5417 44.6527 65.3667 43.9923 65.3667 43.2569C65.3667 42.5215 65.5417 41.861 65.8915 41.2755C66.2414 40.69 66.7233 40.2331 67.3374 39.9046C67.9586 39.5691 68.6547 39.4013 69.4258 39.4013C70.0542 39.4013 70.6254 39.5048 71.1394 39.7119C71.6535 39.9189 72.0855 40.2224 72.4353 40.6222L71.5571 41.479C70.9859 40.9078 70.2969 40.6222 69.4901 40.6222C68.9617 40.6222 68.4905 40.7329 68.0764 40.9542C67.6694 41.1756 67.3481 41.4862 67.1125 41.886C66.884 42.2858 66.7698 42.7428 66.7698 43.2569C66.7698 43.7567 66.884 44.2065 67.1125 44.6063C67.3481 45.0062 67.6694 45.3203 68.0764 45.5488C68.4905 45.7773 68.9582 45.8915 69.4794 45.8915C70.0649 45.8915 70.5789 45.763 71.0216 45.506V43.1712ZM87.4343 47.0054L85.9028 44.8098C85.8385 44.817 85.7421 44.8205 85.6136 44.8205H83.9214V47.0054H82.5291V39.5084H85.6136C86.2633 39.5084 86.8274 39.6155 87.3058 39.8297C87.7913 40.0439 88.1626 40.3509 88.4196 40.7507C88.6766 41.1506 88.8052 41.6254 88.8052 42.1752C88.8052 42.7392 88.6659 43.2247 88.3875 43.6317C88.1162 44.0387 87.7235 44.3422 87.2094 44.5421L88.9337 47.0054H87.4343ZM87.4022 42.1752C87.4022 41.6968 87.2451 41.3291 86.9309 41.072C86.6168 40.815 86.1562 40.6865 85.5493 40.6865H83.9214V43.6746H85.5493C86.1562 43.6746 86.6168 43.546 86.9309 43.289C87.2451 43.0248 87.4022 42.6535 87.4022 42.1752ZM102.219 47.1125C101.455 47.1125 100.766 46.9483 100.152 46.6198C99.5378 46.2842 99.0558 45.8237 98.706 45.2382C98.3561 44.6456 98.1812 43.9852 98.1812 43.2569C98.1812 42.5286 98.3561 41.8717 98.706 41.2862C99.0558 40.6936 99.5378 40.2331 100.152 39.9046C100.766 39.5691 101.455 39.4013 102.219 39.4013C102.983 39.4013 103.672 39.5691 104.286 39.9046C104.9 40.2331 105.382 40.69 105.732 41.2755C106.082 41.861 106.257 42.5215 106.257 43.2569C106.257 43.9923 106.082 44.6527 105.732 45.2382C105.382 45.8237 104.9 46.2842 104.286 46.6198C103.672 46.9483 102.983 47.1125 102.219 47.1125ZM102.219 45.8915C102.719 45.8915 103.168 45.7809 103.568 45.5595C103.968 45.331 104.282 45.0169 104.511 44.617C104.739 44.2101 104.854 43.7567 104.854 43.2569C104.854 42.7571 104.739 42.3073 104.511 41.9074C104.282 41.5004 103.968 41.1863 103.568 40.9649C103.168 40.7365 102.719 40.6222 102.219 40.6222C101.719 40.6222 101.269 40.7365 100.869 40.9649C100.47 41.1863 100.155 41.5004 99.9269 41.9074C99.6984 42.3073 99.5842 42.7571 99.5842 43.2569C99.5842 43.7567 99.6984 44.2101 99.9269 44.617C100.155 45.0169 100.47 45.331 100.869 45.5595C101.269 45.7809 101.719 45.8915 102.219 45.8915ZM119.31 47.1125C118.275 47.1125 117.468 46.8233 116.889 46.245C116.311 45.6595 116.022 44.8241 116.022 43.7388V39.5084H117.414V43.6853C117.414 45.1561 118.05 45.8915 119.321 45.8915C120.584 45.8915 121.216 45.1561 121.216 43.6853V39.5084H122.587V43.7388C122.587 44.8241 122.298 45.6595 121.72 46.245C121.148 46.8233 120.345 47.1125 119.31 47.1125ZM135.975 39.5084C136.625 39.5084 137.189 39.6155 137.667 39.8297C138.153 40.0439 138.524 40.3509 138.781 40.7507C139.038 41.1506 139.167 41.6254 139.167 42.1752C139.167 42.7178 139.038 43.1926 138.781 43.5996C138.524 43.9994 138.153 44.3065 137.667 44.5207C137.189 44.7349 136.625 44.842 135.975 44.842H134.283V47.0054H132.891V39.5084H135.975ZM135.911 43.6639C136.518 43.6639 136.978 43.5353 137.293 43.2783C137.607 43.0213 137.764 42.6535 137.764 42.1752C137.764 41.6968 137.607 41.3291 137.293 41.072C136.978 40.815 136.518 40.6865 135.911 40.6865H134.283V43.6639H135.911Z" fill="#AFAFAF"/>
<path d="M23.2606 51.3658C36.107 51.3658 46.5211 40.9517 46.5211 28.1053C46.5211 15.2588 36.107 4.84473 23.2606 4.84473C10.4141 4.84473 0 15.2588 0 28.1053C0 40.9517 10.4141 51.3658 23.2606 51.3658Z" fill="#486FD6"/>
<path d="M27.6057 27.5251C27.9691 27.7995 27.9691 28.3453 27.6057 28.6197L11.4047 40.8421C10.6764 41.3909 9.7384 40.5023 10.2477 39.746L18.1092 28.0724L10.2477 16.3995C9.7384 15.6432 10.6764 14.7538 11.4047 15.3034L27.6057 27.5251Z" fill="white"/>
<path d="M36.1962 39.7455C36.7055 40.5018 35.7675 41.3912 35.0393 40.8416L24.7461 33.0759L29.3602 29.5952L36.1962 39.7455Z" fill="#FFA000"/>
<path d="M29.3602 26.5495L24.7461 23.0688L35.0385 15.3031C35.7667 14.7542 36.7048 15.6429 36.1955 16.3992L29.3602 26.5495Z" fill="#FFA000"/>
</svg>
