<?xml version="1.0" encoding="utf-8"?>
<!-- Generator: Adobe Illustrator 22.0.0, SVG Export Plug-In . SVG Version: 6.00 Build 0)  -->
<svg version="1.1" id="Layer_1" xmlns="http://www.w3.org/2000/svg" xmlns:xlink="http://www.w3.org/1999/xlink" x="0px" y="0px"
	 viewBox="0 0 325.1 254.6" style="enable-background:new 0 0 325.1 254.6;" xml:space="preserve">
<style type="text/css">
	.st0{fill:#2D3436;}
</style>
<title>Asset 1</title>
<path class="st0" d="M162.5,0C72.7,0,0,70.5,0,149c0,37.2,16.3,47,43,47c29.6,0,72.1-12.1,119.3-12.1c12.3,0.1,24.6,0.8,36.9,2.2
	L239,251c3.3,5.4,6.4,4.7,6.4-1.7v-57c12.2,2,25.9,3.6,36.8,3.6c26.8,0,43-9.8,43-47C325.2,70.5,252.2,0,162.5,0 M243.3,139.1
	c-22.6-3.4-50.8-7.6-81-7.6s-58.4,4.2-81,7.7c-10.4,1.6-20.4,3.1-28.6,3.9c1.7-21.4,12.7-42.8,30.7-59.6C128,42,197,42,241.6,83.3
	c18,16.8,29,38.2,30.7,59.6C264,142.2,253.9,140.7,243.3,139.1"/>
</svg>
